<?xml version="1.0" encoding="utf-8"?>
<!-- Generator: Adobe Illustrator 26.5.0, SVG Export Plug-In . SVG Version: 6.00 Build 0)  -->
<svg version="1.1" xmlns="http://www.w3.org/2000/svg" xmlns:xlink="http://www.w3.org/1999/xlink" x="0px" y="0px"
	 viewBox="0 0 3061.42 3061.42" style="enable-background:new 0 0 3061.42 3061.42;" xml:space="preserve">
<style type="text/css">
	.st0{fill:#45C6E8;}
</style>
<g id="Layer_1">
</g>
<g id="Layer_2">
	<g>
		<path class="st0" d="M576.21,2142.69H956.2l525.57-846.34c111.04,178.21,222.07,356.41,333.11,534.62
			c-164.09,0.69-328.17,1.37-492.26,2.06c-0.82,103.22-1.65,206.44-2.47,309.67c386.57,0,773.14,0,1159.71,0
			c1.78-491.85,3.56-983.69,5.35-1475.54h-329.82l1.65,1062.65c-223.17-354.22-446.34-708.43-669.5-1062.65
			C1183.76,1159,879.98,1650.85,576.21,2142.69z"/>
		<g>
			<path class="st0" d="M815.46,2361.4h-26.09l-4.22-13.33h-26.5l-4.39,13.33h-25.59l29.32-79.77h28.16L815.46,2361.4z
				 M780.34,2333.73c-3.75-11.87-6.57-23.17-8.45-33.88h-0.33c-1.99,11.03-4.78,22.33-8.36,33.88H780.34z"/>
			<path class="st0" d="M828.13,2281.63h29.23c11.81,0,21.15,2.19,27.99,6.57c6.85,4.38,10.27,10.34,10.27,17.87
				c0,3.86-1.3,7.6-3.89,11.2c-2.6,3.61-6.38,6.33-11.35,8.16l20.04,35.97h-26.5l-20.29-36.33h-0.41v36.33h-25.09V2281.63z
				 M853.22,2297.04v18.94c11.1-0.16,16.65-2.97,16.65-8.43c0-3.71-1.28-6.35-3.85-7.95
				C863.45,2298.02,859.19,2297.16,853.22,2297.04z"/>
			<path class="st0" d="M906.31,2281.63h59.88v18.23h-17.31v61.55h-25.43v-61.55h-17.14V2281.63z"/>
			<path class="st0" d="M982.67,2281.63h25.09v79.77h-25.09V2281.63z"/>
			<path class="st0" d="M1032.28,2281.63h50.77v17.09h-25.67v14.58h22.61v16.55h-22.61v31.55h-25.09V2281.63z"/>
			<path class="st0" d="M1100.35,2281.63h25.09v79.77h-25.09V2281.63z"/>
			<path class="st0" d="M1208.02,2342.58v18.94c-5.3,1.23-10.05,1.85-14.24,1.85c-14.52,0-26.29-3.93-35.32-11.8
				c-9.03-7.87-13.54-18.21-13.54-31.04c0-11.91,4.56-21.74,13.67-29.49c9.11-7.75,20.62-11.62,34.54-11.62
				c5.41,0,10.38,0.52,14.91,1.55v19c-4.8-1.16-9.33-1.73-13.58-1.73c-6.52,0-11.93,2.15-16.23,6.45s-6.46,9.78-6.46,16.43
				c0,7.17,2.17,12.84,6.5,17c4.33,4.16,10.12,6.24,17.35,6.24C1199.13,2344.37,1203.27,2343.77,1208.02,2342.58z"/>
			<path class="st0" d="M1225.16,2281.63h25.09v79.77h-25.09V2281.63z"/>
			<path class="st0" d="M1352.12,2361.4h-26.09l-4.22-13.33h-26.5l-4.39,13.33h-25.59l29.32-79.77h28.16L1352.12,2361.4z
				 M1317,2333.73c-3.75-11.87-6.57-23.17-8.45-33.88h-0.33c-1.99,11.03-4.78,22.33-8.36,33.88H1317z"/>
			<path class="st0" d="M1364.79,2281.63h25.09v61.31h19.88v18.46h-44.97V2281.63z"/>
			<path class="st0" d="M1469.22,2281.63h25.09v79.77h-25.09V2281.63z"/>
			<path class="st0" d="M1518.83,2281.63h25.34l31.88,46.01l-0.91-8.6v-37.41h25.09v79.77h-25.76l-31.22-45.29l0.66,9.92v35.38
				h-25.09V2281.63z"/>
			<path class="st0" d="M1615.73,2281.63h59.88v18.23h-17.31v61.55h-25.43v-61.55h-17.14V2281.63z"/>
			<path class="st0" d="M1691.18,2281.63h50.77v16.97h-25.67v14.7h22.28v16.55h-22.28v14.52h25.84v17.03h-50.93V2281.63z"/>
			<path class="st0" d="M1761.9,2281.63H1787v61.31h19.88v18.46h-44.97V2281.63z"/>
			<path class="st0" d="M1823.85,2281.63h25.09v61.31h19.88v18.46h-44.97V2281.63z"/>
			<path class="st0" d="M1886.71,2281.63h25.09v79.77h-25.09V2281.63z"/>
			<path class="st0" d="M2012.35,2316.7v13.38c0,10.36-3.47,18.49-10.39,24.41c-6.93,5.92-16.41,8.87-28.45,8.87
				c-13.47,0-23.88-3.65-31.22-10.96c-7.34-7.31-11.01-17.74-11.01-31.28c0-13.66,3.66-24.03,10.97-31.1
				c7.32-7.07,18.01-10.61,32.09-10.61c15.79,0,27.22,6.08,34.29,18.23l-23.93,7.11c-1.99-2.55-3.84-4.41-5.55-5.59
				c-1.71-1.17-4.06-1.76-7.04-1.76c-5.08,0-8.68,1.92-10.81,5.77c-2.13,3.84-3.19,10.07-3.19,18.67c0,8.01,1.2,13.89,3.6,17.66
				c2.4,3.76,6.22,5.65,11.47,5.65c8.39,0,12.73-4.32,13-12.97h-11.68v-15.48H2012.35z"/>
			<path class="st0" d="M2030.82,2281.63h50.77v16.97h-25.67v14.7h22.28v16.55h-22.28v14.52h25.84v17.03h-50.93V2281.63z"/>
			<path class="st0" d="M2101.54,2281.63h25.34l31.88,46.01l-0.91-8.6v-37.41h25.09v79.77h-25.76l-31.22-45.29l0.66,9.92v35.38
				h-25.09V2281.63z"/>
			<path class="st0" d="M2264.78,2342.58v18.94c-5.3,1.23-10.05,1.85-14.24,1.85c-14.52,0-26.29-3.93-35.32-11.8
				c-9.03-7.87-13.54-18.21-13.54-31.04c0-11.91,4.55-21.74,13.67-29.49c9.11-7.75,20.62-11.62,34.54-11.62
				c5.41,0,10.38,0.52,14.91,1.55v19c-4.8-1.16-9.33-1.73-13.58-1.73c-6.52,0-11.93,2.15-16.23,6.45s-6.46,9.78-6.46,16.43
				c0,7.17,2.17,12.84,6.5,17c4.33,4.16,10.12,6.24,17.35,6.24C2255.89,2344.37,2260.03,2343.77,2264.78,2342.58z"/>
			<path class="st0" d="M2281.01,2281.63h50.77v16.97h-25.67v14.7h22.28v16.55h-22.28v14.52h25.84v17.03h-50.93V2281.63z"/>
		</g>
	</g>
</g>
</svg>
